<?xml version="1.0" standalone="no"?>
<!DOCTYPE svg PUBLIC "-//W3C//DTD SVG 20010904//EN"
 "http://www.w3.org/TR/2001/REC-SVG-20010904/DTD/svg10.dtd">
<svg version="1.0" xmlns="http://www.w3.org/2000/svg"
 width="512.000000pt" height="512.000000pt" viewBox="0 0 512.000000 512.000000"
 preserveAspectRatio="xMidYMid meet">

<g transform="translate(0.000000,512.000000) scale(0.100000,-0.100000)"
fill="#000000" stroke="none">
<path d="M1380 4040 c-293 -31 -588 -143 -811 -310 -425 -316 -622 -807 -554
-1381 19 -158 52 -275 115 -406 145 -303 391 -541 725 -703 344 -167 712 -211
1056 -125 118 30 177 52 300 117 134 70 248 158 373 289 l106 111 -25 42 c-13
23 -49 101 -78 174 -49 119 -93 202 -107 202 -3 0 -17 -24 -32 -52 -14 -29
-52 -89 -85 -133 -185 -249 -497 -395 -843 -395 -324 0 -614 120 -826 343
-184 194 -270 406 -281 698 -11 276 48 490 188 689 266 378 771 552 1246 429
100 -25 279 -113 363 -177 231 -176 404 -466 602 -1012 41 -113 105 -290 142
-395 72 -199 166 -409 230 -510 261 -411 706 -560 1206 -405 299 93 567 318
669 563 88 213 79 418 -29 643 -40 83 -60 111 -114 161 -87 82 -260 166 -567
277 -286 104 -381 143 -468 195 -185 109 -248 216 -231 389 18 179 131 297
315 331 132 25 190 11 363 -89 160 -91 186 -102 252 -103 62 -2 121 26 174 82
28 29 28 31 17 77 -32 126 -131 251 -246 311 -112 59 -201 77 -370 78 -201 0
-327 -30 -507 -122 -200 -102 -353 -284 -399 -473 -19 -76 -16 -240 5 -320 59
-222 132 -315 334 -426 91 -51 161 -81 487 -210 317 -125 405 -173 506 -273
75 -76 103 -136 107 -232 12 -238 -133 -415 -403 -494 -239 -69 -489 -30 -632
99 -70 63 -113 124 -172 242 -44 90 -68 151 -179 454 -55 150 -254 631 -331
799 -153 334 -297 522 -522 683 -99 71 -290 166 -407 202 -188 59 -466 86
-662 66z"/>
</g>
</svg>
